HIERARCHY
ROOT HipCenter
{
    OFFSET 0.0 0.0 -0.0
    CHANNELS 6 Xposition Yposition Zposition Zrotation Xrotation Yrotation
    JOINT Spine
    {
        OFFSET 0.0 0.12098520994186401 0.0
        CHANNELS 3 Zrotation Xrotation Yrotation
        JOINT ShoulderCenter
        {
            OFFSET 0.0 0.3344818353652954 0.0
            CHANNELS 3 Zrotation Xrotation Yrotation
            JOINT LeftShoulder
            {
                OFFSET 0.19070662558078766 0.0 0.0
                CHANNELS 3 Zrotation Xrotation Yrotation
                JOINT LeftElbow
                {
                    OFFSET 0.2975514531135559 0.0 0.0
                    CHANNELS 3 Zrotation Xrotation Yrotation
                    JOINT LeftWrist
                    {
                        OFFSET 0.2960704565048218 0.0 0.0
                        CHANNELS 3 Zrotation Xrotation Yrotation
                        JOINT LeftHand
                        {
                            OFFSET 0.044070273637771606 0.0 0.0
                            CHANNELS 3 Zrotation Xrotation Yrotation
                            End Site
                            {
                                OFFSET 0.017628110945224762 0.0 0.0
                            }
                        }
                    }
                }
            }
            JOINT RightShoulder
            {
                OFFSET -0.19070662558078766 0.0 0.0
                CHANNELS 3 Zrotation Xrotation Yrotation
                JOINT RightElbow
                {
                    OFFSET -0.2975514531135559 0.0 0.0
                    CHANNELS 3 Zrotation Xrotation Yrotation
                    JOINT RightWrist
                    {
                        OFFSET -0.2960704565048218 0.0 0.0
                        CHANNELS 3 Zrotation Xrotation Yrotation
                        JOINT RightHand
                        {
                            OFFSET -0.044070273637771606 0.0 0.0
                            CHANNELS 3 Zrotation Xrotation Yrotation
                            End Site
                            {
                                OFFSET -0.017628110945224762 0.0 0.0
                            }
                        }
                    }
                }
            }
            End Site
            {
                OFFSET 0.0 0.13379274308681488 0.0
            }
        }
    }
    JOINT LeftHip
    {
        OFFSET 0.13975021243095398 0.0 0.0
        CHANNELS 3 Zrotation Xrotation Yrotation
        JOINT LeftKnee
        {
            OFFSET 0.0 -0.4064898192882538 0.0
            CHANNELS 3 Zrotation Xrotation Yrotation
            JOINT LeftAnkle
            {
                OFFSET 0.0 -0.44778120517730713 0.0
                CHANNELS 3 Zrotation Xrotation Yrotation
                JOINT LeftFoot
                {
                    OFFSET 0.0 -0.10068602859973907 0.0
                    CHANNELS 3 Zrotation Xrotation Yrotation
                    End Site
                    {
                        OFFSET 0.0 0.0 0.04027441143989563
                    }
                }
            }
        }
    }
    JOINT RightHip
    {
        OFFSET -0.13975021243095398 0.0 0.0
        CHANNELS 3 Zrotation Xrotation Yrotation
        JOINT RightKnee
        {
            OFFSET 0.0 -0.4064898192882538 0.0
            CHANNELS 3 Zrotation Xrotation Yrotation
            JOINT RightAnkle
            {
                OFFSET 0.0 -0.44778120517730713 0.0
                CHANNELS 3 Zrotation Xrotation Yrotation
                JOINT RightFoot
                {
                    OFFSET 0.0 -0.10068602859973907 0.0
                    CHANNELS 3 Zrotation Xrotation Yrotation
                    End Site
                    {
                        OFFSET 0.0 0.0 0.04027441143989563
                    }
                }
            }
        }
    }
}
MOTION
Frames: 4
Frame Time: 0.03333333333333333
0.6119999885559082 0.23000000417232513 0.8289999961853027 1.8933893744280437 -1.8923564943083377 -0.7550381918487291 -2.117279413033038 -8.47302358847606 -0.2015675691093906 3.695654999222798e-10 -9.997836535766035e-07 3.918703275072492 135.02860885668593 14.457358156765926 -96.13295066488024 4.35306049976115e-06 -7.449478776048015e-07 16.559493707165675 -4.321658750201941e-06 0.7126962894279391 18.743661873341033 0.0 0.0 0.0 -130.64766305563086 19.88214980841654 104.0020115068982 -3.912388831906133e-06 1.8024103358519534e-06 -22.21536246111022 -179.99998876075145 -60.26029929380805 140.1549996045735 3.1805546814635164e-15 -3.1805546814635164e-15 1.5902773407317584e-15 5.079107107971817 7.842724185353554 -45.81589860011107 0.09917460953671524 -0.020083197953963215 0.02492066831465843 82.5457470129147 -45.339313995572894 143.32259116456513 0.0 0.0 0.0 -6.117829707180531 11.498655979176936 47.3859525462874 -2.443909950643554 -3.37736812677189 -4.034801585254643 -91.26060472571709 -42.964182767174364 -151.34161389171018 -3.1805546814635168e-15 0.0 0.0
0.6140000224113464 0.2290000021457672 0.8339999914169312 2.3859416245999934 -2.383875609552148 -1.093876182528759 -2.206153251383136 -8.502150912483536 -0.02451326657329839 -3.935646572300245e-08 1.935696823841146e-07 4.017177498174516 134.97065564846923 18.150719849961263 -91.15444067427381 5.26129773787181e-06 2.1128676649693667e-06 16.1226233708255 -4.6820804123866054e-06 1.6833838633140485 19.242293659193944 1.7655625192200634e-31 3.1805546814635168e-15 -6.3611093629270335e-15 -131.5019533312784 23.168874842495665 99.62494716659502 2.291019891084589e-06 -8.018014833207564e-06 -22.977521933638943 179.99999707531663 -57.424877713290975 141.15762641749959 0.0 0.0 7.951386703658792e-15 4.678783347073769 9.205339028546451 -47.5395510507272 0.44396251339356935 -0.5098419501089534 0.6488986777879995 83.92872877399564 -44.53605595076042 145.6771371572466 0.0 6.3611093629270335e-15 0.0 -6.872413635579014 12.517389182201827 47.55742868489798 -2.566278687565496 -4.10124159228539 -4.873345279402215 -93.52659870587546 -43.88620417828954 -152.7261525657701 3.1805546814635176e-15 -6.361109362927035e-15 -3.1805546814635176e-15
0.6150000095367432 0.2240000069141388 0.8379999995231628 2.366245802760422 -1.8917763588945795 -1.078796918897828 -1.8172463370410246 -9.857623098724083 0.16699072992552957 -1.053792268139177e-07 1.0610568451863665e-06 3.7973873170921575 133.2387509190836 20.708374200438445 -86.70345111687806 1.5394914924458018e-06 -8.500050669898089e-06 16.47846139118978 -2.06044426907273e-06 6.503025240570477 17.734226931717405 1.7655625192200634e-31 3.1805546814635168e-15 -6.3611093629270335e-15 -131.9441991600907 26.029160310434055 95.84840519794089 6.027748224497201e-07 8.160013856227106e-06 -22.97933789019395 179.99999284476678 -59.82326282260092 142.19035306691123 3.1805546814635164e-15 -1.590277340731758e-15 4.770832022195274e-15 4.7055465699453265 9.704559151518248 -48.81956744181248 1.2822141789362214 -1.0584289547536154 1.3605239876650483 85.72102437152036 -45.04788161391141 147.34262884656314 -3.1805546814635164e-15 -6.3611093629270335e-15 6.3611093629270335e-15 -6.550746844939136 12.599068835087335 46.57172329513131 -2.915542773797344 -4.319467518788373 -4.930729437242854 -94.52361350146093 -44.238367385999844 -152.45280617731325 4.4139062980501586e-32 -1.5902773407317584e-15 3.1805546814635168e-15
0.6159999966621399 0.21899999678134918 0.8420000076293945 1.893389545758717 -1.8923565097789903 -0.30160768869679 -1.1316393824064466 -10.028429965451863 0.2704292220611891 1.1184773386514816e-08 -3.7688654418898014e-07 2.7477313113290225 129.76835763787867 22.89519670306635 -81.7694824475698 -9.265265366303167e-07 -9.212892169686003e-06 16.67335583450167 3.0056404015040706e-06 12.106375301060428 17.072955960119774 1.7655625192200634e-31 3.1805546814635168e-15 -6.3611093629270335e-15 -131.7511867995015 28.78874964347093 91.76984107898343 1.99843633804588e-06 4.760481059177244e-06 -23.277778677772584 179.9999963806162 -58.30294026182714 141.07479088730662 -2.2069531490250793e-31 -7.951386703658792e-15 -3.1805546814635168e-15 5.188054411565736 10.218486606181417 -49.647724236333126 1.6245930797415398 -1.3506115873408897 1.757677615881053 86.69005665586337 -45.34985796339806 148.3943964845873 0.0 0.0 3.1805546814635176e-15 -5.915444261828821 13.135967573710147 46.494662736958084 -3.1033880177601576 -4.43198568217752 -4.990858927576785 -96.40945216615233 -43.95797620049699 -153.83632106871997 -3.1805546814635168e-15 -1.5902773407317582e-15 -6.3611093629270335e-15
